<svg width="71" height="76" viewBox="0 0 71 76" fill="none" xmlns="http://www.w3.org/2000/svg">
<path d="M45.5789 0.00151929H44.0842C37.302 0.00151929 30.1406 -0.17816 24.3623 3.37051C15.4607 8.85072 12.315 19.1374 10.6641 26.2796L0 75.377L2.63256 75.4893C12.2927 75.916 20.8374 69.178 22.756 59.6326L22.7783 59.5427C23.113 57.7235 23.6484 55.0957 24.3177 51.9288L24.9424 48.8518H24.987C27.8873 35.4882 29.5605 27.6272 31.0553 21.2486C31.3899 19.8336 32.4162 14.87 34.9372 8.28922C36.7889 3.43789 43.0579 1.03468 45.5789 0.00151929Z" fill="white"/>
<path d="M35.6289 49.3234C41.6749 49.4357 47.0069 48.5373 51.6027 46.6282C56.6224 44.5844 60.6382 41.7994 63.65 38.2731C66.6618 34.6796 68.6474 30.6817 69.6067 26.2796C69.986 24.7523 70.2091 23.0903 70.276 21.271C70.4322 17.5202 69.7406 14.241 68.2235 11.3886L51.2681 22.933L52.6736 15.9031C47.9662 14.5779 43.125 17.4753 42.0095 22.2368L35.6289 49.3234Z" fill="white"/>
</svg>
